<?xml version="1.0" encoding="UTF-8" standalone="no"?>
<!-- Created with Inkscape (http://www.inkscape.org/) -->

<svg
   width="48"
   height="48"
   viewBox="0 0 48 48"
   version="1.1"
   id="svg1"
   xml:space="preserve"
   sodipodi:docname="icon.svg"
   inkscape:version="1.4.3 (0d15f75, 2025-12-25)"
   inkscape:export-filename="output\icon.png"
   inkscape:export-xdpi="960"
   inkscape:export-ydpi="960"
   inkscape:export-batch-path="./output"
   inkscape:export-batch-name="icon"
   xmlns:inkscape="http://www.inkscape.org/namespaces/inkscape"
   xmlns:sodipodi="http://sodipodi.sourceforge.net/DTD/sodipodi-0.dtd"
   xmlns:xlink="http://www.w3.org/1999/xlink"
   xmlns="http://www.w3.org/2000/svg"
   xmlns:svg="http://www.w3.org/2000/svg"><sodipodi:namedview
     id="namedview1"
     pagecolor="#ffffff"
     bordercolor="#000000"
     borderopacity="0.25"
     inkscape:showpageshadow="2"
     inkscape:pageopacity="0.0"
     inkscape:pagecheckerboard="0"
     inkscape:deskcolor="#d1d1d1"
     inkscape:document-units="px"
     showgrid="true"
     inkscape:zoom="32"
     inkscape:cx="22.609375"
     inkscape:cy="27.921875"
     inkscape:window-width="3840"
     inkscape:window-height="2054"
     inkscape:window-x="-11"
     inkscape:window-y="-11"
     inkscape:window-maximized="1"
     inkscape:current-layer="layer1"
     showguides="true"><inkscape:grid
       id="grid1"
       units="px"
       originx="0"
       originy="0"
       spacingx="1"
       spacingy="1"
       empcolor="#009929"
       empopacity="0.30196078"
       color="#009900"
       opacity="0.14901961"
       empspacing="6"
       enabled="true"
       visible="true"
       dotted="false" /><inkscape:page
       x="0"
       y="0"
       width="48"
       height="48"
       id="page2"
       margin="0"
       bleed="0" /></sodipodi:namedview><defs
     id="defs1"><linearGradient
       id="linearGradient5"
       inkscape:collect="always"><stop
         style="stop-color:#757575;stop-opacity:1;"
         offset="0"
         id="stop5" /><stop
         style="stop-color:#424242;stop-opacity:1;"
         offset="1"
         id="stop6" /></linearGradient><linearGradient
       id="linearGradient3"
       inkscape:collect="always"><stop
         style="stop-color:#f5f5f5;stop-opacity:1;"
         offset="0"
         id="stop3" /><stop
         style="stop-color:#e0e0e0;stop-opacity:1;"
         offset="1"
         id="stop4" /></linearGradient><linearGradient
       id="linearGradient1"
       inkscape:collect="always"><stop
         style="stop-color:#29b6f6;stop-opacity:1;"
         offset="0"
         id="stop1" /><stop
         style="stop-color:#039be5;stop-opacity:1;"
         offset="1"
         id="stop2" /></linearGradient><inkscape:path-effect
       effect="fillet_chamfer"
       id="path-effect3-2"
       is_visible="true"
       lpeversion="1"
       nodesatellites_param="F,0,0,1,0,2,0,1 @ F,0,0,1,0,2,0,1 @ F,0,0,1,0,2,0,1 @ F,0,0,1,0,2,0,1"
       radius="2"
       unit="px"
       method="auto"
       mode="F"
       chamfer_steps="1"
       flexible="false"
       use_knot_distance="true"
       apply_no_radius="true"
       apply_with_radius="true"
       only_selected="false"
       hide_knots="false" /><inkscape:path-effect
       effect="fillet_chamfer"
       id="path-effect1-8"
       is_visible="true"
       lpeversion="1"
       nodesatellites_param="F,0,0,1,0,1,0,1 @ F,0,0,1,0,1,0,1 @ F,0,0,1,0,1,0,1"
       radius="1"
       unit="px"
       method="auto"
       mode="F"
       chamfer_steps="1"
       flexible="false"
       use_knot_distance="true"
       apply_no_radius="true"
       apply_with_radius="true"
       only_selected="false"
       hide_knots="false" /><inkscape:path-effect
       effect="fillet_chamfer"
       id="path-effect2-6"
       is_visible="true"
       lpeversion="1"
       nodesatellites_param="F,0,0,1,0,1,0,1 @ F,0,0,1,0,1,0,1 @ F,0,0,1,0,1,0,1 @ F,0,0,1,0,1,0,1"
       radius="1"
       unit="px"
       method="auto"
       mode="F"
       chamfer_steps="1"
       flexible="false"
       use_knot_distance="true"
       apply_no_radius="true"
       apply_with_radius="true"
       only_selected="false"
       hide_knots="false" /><inkscape:path-effect
       effect="fillet_chamfer"
       id="path-effect2-4-1"
       is_visible="true"
       lpeversion="1"
       nodesatellites_param="F,0,0,1,0,1,0,1 @ F,0,0,1,0,1,0,1 @ F,0,0,1,0,1,0,1 @ F,0,0,1,0,1,0,1"
       radius="1"
       unit="px"
       method="auto"
       mode="F"
       chamfer_steps="1"
       flexible="false"
       use_knot_distance="true"
       apply_no_radius="true"
       apply_with_radius="true"
       only_selected="false"
       hide_knots="false" /><inkscape:path-effect
       effect="fillet_chamfer"
       id="path-effect2-4-5-8"
       is_visible="true"
       lpeversion="1"
       nodesatellites_param="F,0,0,1,0,1,0,1 @ F,0,0,1,0,1,0,1 @ F,0,0,1,0,1,0,1 @ F,0,0,1,0,1,0,1"
       radius="1"
       unit="px"
       method="auto"
       mode="F"
       chamfer_steps="1"
       flexible="false"
       use_knot_distance="true"
       apply_no_radius="true"
       apply_with_radius="true"
       only_selected="false"
       hide_knots="false" /><linearGradient
       inkscape:collect="always"
       xlink:href="#linearGradient1"
       id="linearGradient7"
       gradientUnits="userSpaceOnUse"
       x1="12"
       y1="3.2153902"
       x2="36"
       y2="44.784611" /><linearGradient
       inkscape:collect="always"
       xlink:href="#linearGradient5"
       id="linearGradient8"
       gradientUnits="userSpaceOnUse"
       gradientTransform="translate(2,-0.99999981)"
       x1="5"
       y1="27.071796"
       x2="13"
       y2="34" /><linearGradient
       inkscape:collect="always"
       xlink:href="#linearGradient3"
       id="linearGradient9"
       gradientUnits="userSpaceOnUse"
       gradientTransform="matrix(1.0772193,0,0,1.0772193,3.5352064,-1.8532629)"
       x1="5.9977975"
       y1="16.535898"
       x2="9.997797"
       y2="23.464102" /><inkscape:path-effect
       effect="fillet_chamfer"
       id="path-effect3-2-5"
       is_visible="true"
       lpeversion="1"
       nodesatellites_param="F,0,0,1,0,2,0,1 @ F,0,0,1,0,2,0,1 @ F,0,0,1,0,2,0,1 @ F,0,0,1,0,2,0,1"
       radius="2"
       unit="px"
       method="auto"
       mode="F"
       chamfer_steps="1"
       flexible="false"
       use_knot_distance="true"
       apply_no_radius="true"
       apply_with_radius="true"
       only_selected="false"
       hide_knots="false" /><inkscape:path-effect
       effect="fillet_chamfer"
       id="path-effect3-2-5-4"
       is_visible="true"
       lpeversion="1"
       nodesatellites_param="F,0,0,1,0,2,0,1 @ F,0,0,1,0,2,0,1 @ F,0,0,1,0,2,0,1 @ F,0,0,1,0,2,0,1"
       radius="2"
       unit="px"
       method="auto"
       mode="F"
       chamfer_steps="1"
       flexible="false"
       use_knot_distance="true"
       apply_no_radius="true"
       apply_with_radius="true"
       only_selected="false"
       hide_knots="false" /><filter
       style="color-interpolation-filters:sRGB"
       inkscape:label="Drop Shadow"
       id="filter323"
       x="-0.05"
       y="-0.1"
       width="1.1"
       height="1.2208333"><feFlood
         result="flood"
         in="SourceGraphic"
         flood-opacity="0.141176"
         flood-color="rgb(0,0,0)"
         id="feFlood322" /><feGaussianBlur
         result="blur"
         in="SourceGraphic"
         stdDeviation="1.000000"
         id="feGaussianBlur322" /><feOffset
         result="offset"
         in="blur"
         dx="0.000000"
         dy="0.500000"
         id="feOffset322" /><feComposite
         result="comp1"
         operator="in"
         in="flood"
         in2="offset"
         id="feComposite322" /><feComposite
         result="comp2"
         operator="over"
         in="SourceGraphic"
         in2="comp1"
         id="feComposite323" /></filter><filter
       style="color-interpolation-filters:sRGB"
       inkscape:label="Drop Shadow"
       id="filter325"
       x="-0.05"
       y="-0.1"
       width="1.1"
       height="1.2208333"><feFlood
         result="flood"
         in="SourceGraphic"
         flood-opacity="0.141176"
         flood-color="rgb(0,0,0)"
         id="feFlood323" /><feGaussianBlur
         result="blur"
         in="SourceGraphic"
         stdDeviation="1.000000"
         id="feGaussianBlur323" /><feOffset
         result="offset"
         in="blur"
         dx="0.000000"
         dy="0.500000"
         id="feOffset323" /><feComposite
         result="comp1"
         operator="in"
         in="flood"
         in2="offset"
         id="feComposite324" /><feComposite
         result="comp2"
         operator="over"
         in="SourceGraphic"
         in2="comp1"
         id="feComposite325" /></filter><filter
       style="color-interpolation-filters:sRGB"
       inkscape:label="Drop Shadow"
       id="filter327"
       x="-0.05"
       y="-0.1"
       width="1.1"
       height="1.2208333"><feFlood
         result="flood"
         in="SourceGraphic"
         flood-opacity="0.141176"
         flood-color="rgb(0,0,0)"
         id="feFlood325" /><feGaussianBlur
         result="blur"
         in="SourceGraphic"
         stdDeviation="1.000000"
         id="feGaussianBlur325" /><feOffset
         result="offset"
         in="blur"
         dx="0.000000"
         dy="0.500000"
         id="feOffset325" /><feComposite
         result="comp1"
         operator="in"
         in="flood"
         in2="offset"
         id="feComposite326" /><feComposite
         result="comp2"
         operator="over"
         in="SourceGraphic"
         in2="comp1"
         id="feComposite327" /></filter><mask
       maskUnits="userSpaceOnUse"
       id="mask4"><g
         id="g7"
         inkscape:label="card-background-mask"
         style="display:inline;fill:#ffffff;fill-opacity:1;stroke:none"
         transform="translate(0.99999998,-2.7470573)"><path
           id="path4"
           d="M 5.5707849,9.4578436 45.291365,16.461653 a 1.8333334,2.3333334 10.000001 0 1 1.400301,2.61624 l -4.051791,22.978848 a 1.8333334,2.3333334 10.000001 0 1 -2.21066,1.97953 L 0.70863565,37.032461 a 1.8333334,2.3333334 10.000001 0 1 -1.4003018,-2.616239 L 3.3601249,11.437374 a 1.8333334,2.3333334 10.000001 0 1 2.21066,-1.9795304 z"
           style="display:inline;fill:#ffffff;fill-opacity:1;stroke:none;stroke-width:0.355744"
           inkscape:label="card-background3" /><path
           id="path5"
           d="m 4.1302539,11.04269 40.1798531,3.515282 a 1.8333333,2.3333334 4.9999999 0 1 1.622994,2.484239 l -2.033634,23.244544 a 1.8333333,2.3333334 4.9999999 0 1 -2.02972,2.164669 L 1.6898931,38.936143 A 1.8333333,2.3333334 4.9999999 0 1 0.06689943,36.451903 L 2.1005335,13.207359 A 1.8333333,2.3333334 4.9999999 0 1 4.1302539,11.04269 Z"
           style="display:inline;fill:#ffffff;fill-opacity:1;stroke:none;stroke-width:0.355744"
           inkscape:label="card-background2" /><path
           id="path7"
           d="M 2.8713842,12.747058 H 43.204718 a 1.8333333,2.3333334 0 0 1 1.833333,2.333333 v 23.333334 a 1.8333333,2.3333334 0 0 1 -1.833333,2.333334 H 2.8713842 A 1.8333333,2.3333334 0 0 1 1.0380509,38.413725 V 15.080391 a 1.8333333,2.3333334 0 0 1 1.8333333,-2.333333 z"
           style="display:inline;fill:#ffffff;fill-opacity:1;stroke:none;stroke-width:0.355744"
           inkscape:label="card-background1" /></g></mask></defs><g
     inkscape:label="图层 1"
     inkscape:groupmode="layer"
     id="layer1"
     style="display:inline"><g
       id="g409"
       inkscape:label="card-background"
       style="display:inline"
       mask="url(#mask4)"><path
         style="display:inline;fill:#0277bd;fill-opacity:1;stroke-width:0.344;filter:url(#filter327)"
         id="rect1-7-7"
         width="48"
         height="24"
         x="0"
         y="12"
         inkscape:label="card-background3"
         sodipodi:type="rect"
         transform="matrix(0.90274045,0.15917749,-0.20258955,1.1489424,7.1963784,-7.3948774)"
         d="m 2,12 h 44 a 2,2 45 0 1 2,2 v 20 a 2,2 135 0 1 -2,2 H 2 A 2,2 45 0 1 0,34 V 14 a 2,2 135 0 1 2,-2 z"
         inkscape:path-effect="#path-effect3-2-5" /><path
         style="display:inline;fill:#0288d1;fill-opacity:1;stroke-width:0.344;filter:url(#filter325)"
         id="rect1-7-7-3"
         width="48"
         height="24"
         x="0"
         y="12"
         inkscape:label="card-background2"
         sodipodi:type="rect"
         transform="matrix(0.91317848,0.07989276,-0.1016817,1.1622272,4.5240773,-5.810879)"
         d="m 2,12 h 44 a 2,2 45 0 1 2,2 v 20 a 2,2 135 0 1 -2,2 H 2 A 2,2 45 0 1 0,34 V 14 a 2,2 135 0 1 2,-2 z"
         inkscape:path-effect="#path-effect3-2-5-4" /><path
         style="display:inline;fill:url(#linearGradient7);fill-opacity:1;stroke-width:0.344;filter:url(#filter323)"
         id="rect1-7"
         width="48"
         height="24"
         x="0"
         y="12"
         inkscape:label="card-background1"
         sodipodi:type="rect"
         transform="matrix(0.91666667,0,0,1.1666667,1.9999999,-4.0000006)"
         d="m 2,12 h 44 a 2,2 45 0 1 2,2 v 20 a 2,2 135 0 1 -2,2 H 2 A 2,2 45 0 1 0,34 V 14 a 2,2 135 0 1 2,-2 z"
         inkscape:path-effect="#path-effect3-2" /></g><g
       id="g2-2"
       inkscape:label="card-content"
       style="display:inline"
       transform="matrix(0.92831609,0,0,0.92831609,1.7204138,1.7204138)"><g
         id="g9"
         inkscape:label="person"><path
           id="path4-9"
           style="display:inline;fill:url(#linearGradient8);stroke-width:0.344"
           d="M 18,33 H 4 c -0.5522847,0 -1.0065434,-0.449751 -0.9384222,-0.997463 0.4503287,-3.620762 3.3202035,-6.490635 6.9409662,-6.94096 0.547709,-0.06812 1.447207,-0.06812 1.994919,1e-6 3.620762,0.450328 6.490635,3.320203 6.94096,6.940966 C 19.006543,32.550253 18.552285,33 18,33 Z"
           sodipodi:nodetypes="ccsc"
           inkscape:path-effect="#path-effect1-8"
           inkscape:original-d="M 19,33 H 3 c 0,-4.418278 3.581722,-8 8,-8 4.418278,0 8,3.581722 8,8 z"
           inkscape:label="body"
           transform="matrix(1.0846481,0,0,1.0786332,0.21945837,-0.82270274)" /><circle
           style="display:inline;fill:url(#linearGradient9);stroke-width:0.370564"
           id="path2-5"
           cx="12.150588"
           cy="19.691122"
           inkscape:label="head"
           r="4.308877" /></g><g
         id="g3-4"
         inkscape:label="messages"><path
           style="fill:#0d47a1;fill-opacity:0.501961;stroke-width:0.344"
           id="rect2-3"
           width="21"
           height="2"
           x="24"
           y="16"
           inkscape:path-effect="#path-effect2-6"
           sodipodi:type="rect"
           d="m 25,16 h 19 a 1,1 45 0 1 1,1 1,1 135 0 1 -1,1 H 25 a 1,1 45 0 1 -1,-1 1,1 135 0 1 1,-1 z"
           inkscape:label="first"
           transform="matrix(1.0259231,0,0,1.0772193,-0.62215436,-0.7760438)" /><path
           style="display:inline;fill:#0d47a1;fill-opacity:0.501961;stroke-width:0.344"
           id="rect2-8-12"
           width="21"
           height="2"
           x="24"
           y="16"
           inkscape:path-effect="#path-effect2-4-1"
           sodipodi:type="rect"
           d="m 25,16 h 19 a 1,1 45 0 1 1,1 1,1 135 0 1 -1,1 H 25 a 1,1 45 0 1 -1,-1 1,1 135 0 1 1,-1 z"
           transform="matrix(1.0259231,0,0,1.0772193,-0.62215436,5.6872719)"
           inkscape:label="second" /><path
           style="display:inline;fill:#0d47a1;fill-opacity:0.501961;stroke-width:0.344"
           id="rect2-8-1-3"
           width="21"
           height="2"
           x="24"
           y="16"
           inkscape:path-effect="#path-effect2-4-5-8"
           sodipodi:type="rect"
           d="m 25,16 h 19 a 1,1 45 0 1 1,1 1,1 135 0 1 -1,1 H 25 a 1,1 45 0 1 -1,-1 1,1 135 0 1 1,-1 z"
           transform="matrix(1.0259231,0,0,1.0772193,-0.62215436,12.150588)"
           inkscape:label="third" /></g></g></g></svg>
